HIERARCHY
ROOT Hips
{
  OFFSET 5.84602e-005 68.8428 3.50346
  CHANNELS 6 Xposition Yposition Zposition Zrotation Xrotation Yrotation
  JOINT Spine
  {
    OFFSET 0 8.597 -4.6522
    CHANNELS 3 Zrotation Xrotation Yrotation
    JOINT Spine1
    {
      OFFSET 0 7.8454 0.4098
      CHANNELS 3 Zrotation Xrotation Yrotation
      JOINT Spine2
      {
        OFFSET 0 9.7078 -2.1609
        CHANNELS 3 Zrotation Xrotation Yrotation
        JOINT Neck
        {
          OFFSET 0 21.8761 -0.4549
          CHANNELS 3 Zrotation Xrotation Yrotation
          JOINT Head
          {
            OFFSET 0 12.3537 3.3602
            CHANNELS 3 Zrotation Xrotation Yrotation
            End Site
            {
              OFFSET 0.0001 18.9506 0.5657
            }
          }
        }
        JOINT LeftShoulder
        {
          OFFSET 2.2086 21.1115 7.2329
          CHANNELS 3 Zrotation Xrotation Yrotation
          JOINT LeftArm
          {
            OFFSET 13.1193 3.0282 -4.8998
            CHANNELS 3 Zrotation Xrotation Yrotation
            JOINT LeftForeArm
            {
              OFFSET 27.4081 -0.0973053 -0.2375
              CHANNELS 3 Zrotation Xrotation Yrotation
              JOINT LeftHand
              {
                OFFSET 22.8641 0.0662994 -0.1369
                CHANNELS 3 Zrotation Xrotation Yrotation
                JOINT LeftHandIndex1
                {
                  OFFSET 8.8614 0.775009 2.4612
                  CHANNELS 3 Zrotation Xrotation Yrotation
                  JOINT LeftHandIndex2
                  {
                    OFFSET 3.3146 -0.808304 0.5841
                    CHANNELS 3 Zrotation Xrotation Yrotation
                    JOINT LeftHandIndex3
                    {
                      OFFSET 2.2628 -0.552002 0.3989
                      CHANNELS 3 Zrotation Xrotation Yrotation
                      End Site
                      {
                        OFFSET 1.6102 -0.4807 0.2612
                      }
                    }
                  }
                }
                JOINT LeftHandMiddle1
                {
                  OFFSET 8.9937 0.895004 0.2143
                  CHANNELS 3 Zrotation Xrotation Yrotation
                  JOINT LeftHandMiddle2
                  {
                    OFFSET 4.0984 0.0113983 -0.0242
                    CHANNELS 3 Zrotation Xrotation Yrotation
                    JOINT LeftHandMiddle3
                    {
                      OFFSET 2.2716 0.00689697 -0.0138001
                      CHANNELS 3 Zrotation Xrotation Yrotation
                      End Site
                      {
                        OFFSET 2.0404 -0.1441 0.0027
                      }
                    }
                  }
                }
                JOINT LeftHandRing1
                {
                  OFFSET 8.5234 0.597198 -2.0164
                  CHANNELS 3 Zrotation Xrotation Yrotation
                  JOINT LeftHandRing2
                  {
                    OFFSET 3.7188 -0.188293 -0.2328
                    CHANNELS 3 Zrotation Xrotation Yrotation
                    JOINT LeftHandRing3
                    {
                      OFFSET 2.1191 -0.106598 -0.1332
                      CHANNELS 3 Zrotation Xrotation Yrotation
                      End Site
                      {
                        OFFSET 1.8737 -0.2304 -0.0886
                      }
                    }
                  }
                }
                JOINT LeftHandPinky1
                {
                  OFFSET 7.9094 -0.601089 -3.4825
                  CHANNELS 3 Zrotation Xrotation Yrotation
                  JOINT LeftHandPinky2
                  {
                    OFFSET 2.2874 -0.477005 -0.6314
                    CHANNELS 3 Zrotation Xrotation Yrotation
                    JOINT LeftHandPinky3
                    {
                      OFFSET 1.6774 -0.349396 -0.4633
                      CHANNELS 3 Zrotation Xrotation Yrotation
                      End Site
                      {
                        OFFSET 1.4888 -0.4091 -0.3416
                      }
                    }
                  }
                }
                JOINT LeftHandThumb1
                {
                  OFFSET 1.833 -1.3875 1.3896
                  CHANNELS 3 Zrotation Xrotation Yrotation
                  JOINT LeftHandThumb2
                  {
                    OFFSET 3.4129 -1.121 2.5732
                    CHANNELS 3 Zrotation Xrotation Yrotation
                    JOINT LeftHandThumb3
                    {
                      OFFSET 2.2474 -0.804199 1.6192
                      CHANNELS 3 Zrotation Xrotation Yrotation
                      End Site
                      {
                        OFFSET 1.6527 -0.5689 1.1317
                      }
                    }
                  }
                }
              }
            }
          }
        }
        JOINT RightShoulder
        {
          OFFSET -2.2086 21.1115 7.2329
          CHANNELS 3 Zrotation Xrotation Yrotation
          JOINT RightArm
          {
            OFFSET -13.1216 3.0287 -4.9007
            CHANNELS 3 Zrotation Xrotation Yrotation
            JOINT RightForeArm
            {
              OFFSET -27.4081 -0.0973053 -0.2375
              CHANNELS 3 Zrotation Xrotation Yrotation
              JOINT RightHand
              {
                OFFSET -22.8641 0.0664063 -0.1369
                CHANNELS 3 Zrotation Xrotation Yrotation
                JOINT RightHandIndex1
                {
                  OFFSET -8.8614 0.774994 2.4612
                  CHANNELS 3 Zrotation Xrotation Yrotation
                  JOINT RightHandIndex2
                  {
                    OFFSET -3.3146 -0.808304 0.5841
                    CHANNELS 3 Zrotation Xrotation Yrotation
                    JOINT RightHandIndex3
                    {
                      OFFSET -2.2628 -0.552002 0.3989
                      CHANNELS 3 Zrotation Xrotation Yrotation
                      End Site
                      {
                        OFFSET -1.6102 -0.4807 0.2612
                      }
                    }
                  }
                }
                JOINT RightHandMiddle1
                {
                  OFFSET -8.9937 0.894989 0.2143
                  CHANNELS 3 Zrotation Xrotation Yrotation
                  JOINT RightHandMiddle2
                  {
                    OFFSET -4.0984 0.0113983 -0.0242
                    CHANNELS 3 Zrotation Xrotation Yrotation
                    JOINT RightHandMiddle3
                    {
                      OFFSET -2.2716 0.00691223 -0.0138001
                      CHANNELS 3 Zrotation Xrotation Yrotation
                      End Site
                      {
                        OFFSET -2.0404 -0.1441 0.0027
                      }
                    }
                  }
                }
                JOINT RightHandRing1
                {
                  OFFSET -8.5234 0.597198 -2.0164
                  CHANNELS 3 Zrotation Xrotation Yrotation
                  JOINT RightHandRing2
                  {
                    OFFSET -3.7188 -0.188309 -0.2328
                    CHANNELS 3 Zrotation Xrotation Yrotation
                    JOINT RightHandRing3
                    {
                      OFFSET -2.1191 -0.106598 -0.1332
                      CHANNELS 3 Zrotation Xrotation Yrotation
                      End Site
                      {
                        OFFSET -1.8737 -0.2304 -0.0886
                      }
                    }
                  }
                }
                JOINT RightHandPinky1
                {
                  OFFSET -7.9094 -0.601105 -3.4825
                  CHANNELS 3 Zrotation Xrotation Yrotation
                  JOINT RightHandPinky2
                  {
                    OFFSET -2.2874 -0.477005 -0.6314
                    CHANNELS 3 Zrotation Xrotation Yrotation
                    JOINT RightHandPinky3
                    {
                      OFFSET -1.6774 -0.349396 -0.4633
                      CHANNELS 3 Zrotation Xrotation Yrotation
                      End Site
                      {
                        OFFSET -1.4888 -0.4091 -0.3416
                      }
                    }
                  }
                }
                JOINT RightHandThumb1
                {
                  OFFSET -1.833 -1.38751 1.3896
                  CHANNELS 3 Zrotation Xrotation Yrotation
                  JOINT RightHandThumb2
                  {
                    OFFSET -3.41299 -1.12099 2.5732
                    CHANNELS 3 Zrotation Xrotation Yrotation
                    JOINT RightHandThumb3
                    {
                      OFFSET -2.24741 -0.804108 1.6192
                      CHANNELS 3 Zrotation Xrotation Yrotation
                      End Site
                      {
                        OFFSET -1.6527 -0.5689 1.1317
                      }
                    }
                  }
                }
              }
            }
          }
        }
      }
    }
  }
  JOINT RightUpLeg
  {
    OFFSET -9.1966 3.8861 -0.7581
    CHANNELS 3 Zrotation Xrotation Yrotation
    JOINT RightLeg
    {
      OFFSET -0.7359 -41.0265 0
      CHANNELS 3 Zrotation Xrotation Yrotation
      JOINT RightFoot
      {
        OFFSET 0 -40.2855 0
        CHANNELS 3 Zrotation Xrotation Yrotation
        JOINT RightToeBase
        {
          OFFSET 0 -5.6122 11.7359
          CHANNELS 3 Zrotation Xrotation Yrotation
          End Site
          {
            OFFSET 0 0 7.8731
          }
        }
      }
    }
  }
  JOINT LeftUpLeg
  {
    OFFSET 9.1965 3.8864 -0.7581
    CHANNELS 3 Zrotation Xrotation Yrotation
    JOINT LeftLeg
    {
      OFFSET 0.7359 -41.0268 0
      CHANNELS 3 Zrotation Xrotation Yrotation
      JOINT LeftFoot
      {
        OFFSET 0 -40.2855 0
        CHANNELS 3 Zrotation Xrotation Yrotation
        JOINT LeftToeBase
        {
          OFFSET 0 -5.6122 11.7359
          CHANNELS 3 Zrotation Xrotation Yrotation
          End Site
          {
            OFFSET 0 0 7.8731
          }
        }
      }
    }
  }
}
MOTION
Frames:	4
Frame Time:	0.0333333
5.84602e-005 68.8428 3.50346 0 0 -0 0 0 -0 0 0 -0 0 0 -0 0 0 -0 0 0 -0 0 0 -0 0 0 -0 0 0 -0 0 0 -0 0 0 -0 0 0 -0 0 0 -0 0 0 -0 -0.0146107 -8.87603e-005 -2.63497e-007 2.99804e-018 -2.42657e-020 -1.42182e-022 0 0 -0 -0.0187562 -0.001176 5.858e-005 5.06224e-018 3.88251e-019 1.21329e-020 0 0 -0 -0.012269 -0.00324817 0.000675346 -1.74678e-018 3.88251e-019 -0 0 0 -0 0 0 -0 0 0 -0 0 0 -0 0 0 -0 0 0 -0 0 0 -0 0 0 -0 0 0 -0 0 0 -0 0 0 -0 0.0149955 -9.10982e-005 2.64101e-007 -9.69331e-018 1.21329e-020 -4.7394e-023 0 0 -0 0.0189956 -0.00119102 -5.96516e-005 -5.41541e-019 0 2.42657e-020 0 0 -0 0.0122698 -0.00324857 -0.000673756 -2.00796e-019 0 -1.94126e-019 0 0 -0 0 0 -0 0 0 -0 3.39842 1.33031 -0.0637918 -5.65207e-008 0.834868 -0.000436188 -3.39935 -2.16518 -0.0642563 -8.89002e-024 -1.18485e-023 -1.48106e-024 -3.39844 1.35642 0.0640283 -3.18788e-007 0.782166 -0.000588827 3.39931 -2.13858 0.0634662 1.1399e-023 0 -0 
-0.0192856 39.8285 6.39319 -0 -33.334 -0 0.740665 -0.00210011 0.0739769 1.48134 -0.0031902 0.147976 1.48134 -0.00319173 0.147976 -1.77315e-005 10.3699 1.19698e-005 -1.03863e-006 5.92481 2.67186e-007 1.12073e-005 -4.26878e-009 9.85856e-007 -9.51455 7.37997 4.85459 1.47127 7.26368 -11.6083 -8.51946 4.11227e-006 3.67206e-007 -7.00325e-007 -1.61536e-007 9.70081e-007 8.35203e-007 7.28084e-008 -1.34878e-007 -7.00325e-007 -1.61536e-007 9.70081e-007 -7.00325e-007 -1.61536e-007 9.70081e-007 -0.0145716 -9.05385e-005 9.49475e-008 -7.00322e-007 -1.61659e-007 9.70061e-007 -7.00325e-007 -1.61536e-007 9.70081e-007 -0.0187465 -0.00117444 6.07798e-005 -7.00312e-007 -1.61694e-007 9.70062e-007 -7.00325e-007 -1.61536e-007 9.70081e-007 -0.0123055 -0.00325901 0.000677765 -9.38814e-007 2.6947e-007 1.39209e-006 -7.00325e-007 -1.61536e-007 9.70081e-007 8.35203e-007 7.28084e-008 -1.34878e-007 -7.00325e-007 -1.61536e-007 9.70081e-007 1.07741e-005 -3.70451 1.01342e-006 1.06655 -21.3679 16.7355 6.73586 -3.39976 47.2526 -3.70377 -0.000343193 5.55522 -9.54166e-015 -1.98785e-016 -8.94531e-016 -1.27222e-014 2.18663e-015 -5.06901e-015 -1.27222e-014 5.96354e-016 -4.07509e-015 -9.54166e-015 -1.98785e-016 -8.94531e-016 0.0150211 -9.30683e-005 7.26936e-006 -6.36111e-015 -3.18055e-015 -2.98177e-016 -9.54166e-015 -1.98785e-016 -8.94531e-016 0.0190304 -0.0011934 -5.92722e-005 -3.18055e-015 0 4.96962e-015 -9.54166e-015 -1.98785e-016 -8.94531e-016 0.012214 -0.0032339 -0.000669187 -1.86146e-007 2.06944e-006 -4.79527e-007 -9.54166e-015 -1.98785e-016 -8.94531e-016 -1.27222e-014 2.18663e-015 -5.06901e-015 -1.27222e-014 5.96354e-016 -4.07509e-015 -0.570863 -14.5726 -3.13971 0.0891424 36.9507 -1.45099 -3.47897 6.1581 0.187194 1.06554e-007 3.90447e-009 -4.34416e-009 2.14465 1.86248 0.080928 -9.56907e-007 0.583334 0.81509 5.18669 15.9632 -1.95195 -2.74074e-008 -1.2254e-008 -2.11292e-007 
-0.0495343 11.8519 7.17181 -0 -66.6681 -0 1.48132 -0.00798794 0.147871 2.96266 -0.0121207 0.295901 2.96265 -0.0121131 0.2959 4.73894e-005 20.7388 -5.34291e-006 7.58238e-008 11.8496 1.00588e-006 5.76003e-005 -1.13107e-005 5.41803e-006 -20.3116 14.5991 9.95302 5.87904 13.622 -23.7344 -17.0389 -5.42521e-006 1.40544e-007 3.18055e-015 -6.36111e-015 -0 2.07352e-006 1.11997e-007 1.05397e-006 -3.18055e-015 6.36111e-015 -3.18055e-015 3.18055e-015 -6.36111e-015 -0 -0.0146283 -9.40793e-005 -2.09629e-006 1.59028e-015 0 -0 3.18055e-015 -6.36111e-015 -0 -0.0187415 -0.0011768 5.66951e-005 4.77083e-015 3.18055e-015 6.36111e-015 3.18055e-015 -6.36111e-015 -0 -0.0123127 -0.0032616 0.000676343 3.18055e-015 0 -3.18055e-015 3.18055e-015 -6.36111e-015 -0 2.07352e-006 1.11997e-007 1.05397e-006 -3.18055e-015 6.36111e-015 -3.18055e-015 5.77583e-005 -7.40903 5.32432e-006 16.5031 -36.8357 40.2074 16.106 0.744076 94.2223 -7.4075 -0.00065575 11.1104 -2.97966e-007 -4.78946e-008 -1.36507e-006 4.78783e-007 3.67352e-007 -4.40226e-007 -6.83976e-008 -5.24788e-008 6.28894e-008 -2.97966e-007 -4.78946e-008 -1.36507e-006 0.0150113 -9.22156e-005 -1.38844e-006 -6.83977e-008 -5.24706e-008 6.28963e-008 -2.97966e-007 -4.78946e-008 -1.36507e-006 0.0189705 -0.00118196 -5.22709e-005 6.41912e-007 3.10342e-007 1.05056e-006 -2.97966e-007 -4.78946e-008 -1.36507e-006 0.0123047 -0.00325841 -0.000678588 -6.83957e-008 -5.24725e-008 6.28969e-008 -2.97966e-007 -4.78946e-008 -1.36507e-006 4.78783e-007 3.67352e-007 -4.40226e-007 -6.83976e-008 -5.24788e-008 6.28894e-008 -5.86965 -29.3134 -6.97148 0.0291375 70.991 -1.86626 -3.23302 15.5249 -0.784937 -1.98785e-016 1.59028e-015 -1.59028e-015 7.68494 1.8792 0.0921706 -1.48934e-006 1.28009 1.71369 8.48672 33.5585 -4.60367 -6.04716e-007 1.4372e-007 1.03511e-006 
-0.0833851 -7.796 6.29345 -180 -89.9981 -180 1.99979 -0.0143811 0.199511 3.99963 -0.0217713 0.399404 3.99963 -0.0217863 0.399405 -6.47669e-005 27.9976 1.6962e-005 -7.75074e-007 15.997 1.1212e-007 -4.81373e-005 -9.49237e-006 -2.51212e-006 -28.681 19.4635 13.8015 10.6168 17.0456 -32.5983 -23.0025 1.30603e-006 3.217e-006 1.94911e-006 -1.00751e-007 3.43444e-006 6.36111e-015 0 -6.36111e-015 3.18055e-015 9.54166e-015 -9.54166e-015 1.94911e-006 -1.00751e-007 3.43444e-006 -0.0146351 -8.87094e-005 -1.52077e-006 -6.36111e-015 0 -0 1.94911e-006 -1.00751e-007 3.43444e-006 -0.0187222 -0.00117099 6.12786e-005 -3.18055e-015 -3.18055e-015 -3.18055e-015 1.94911e-006 -1.00751e-007 3.43444e-006 -0.0123421 -0.00327283 0.000674944 1.94818e-006 -1.01407e-007 3.43443e-006 1.94911e-006 -1.00751e-007 3.43444e-006 6.36111e-015 0 -6.36111e-015 3.18055e-015 9.54166e-015 -9.54166e-015 -4.9443e-005 -10.0022 -4.06626e-006 35.2101 -40.0617 60.9554 19.0057 8.06937 126.529 -10.0001 -0.000884562 14.9991 0 6.36111e-015 -0 6.36111e-015 6.36111e-015 -3.18055e-015 9.54166e-015 3.18055e-015 3.18055e-015 0 6.36111e-015 -0 0.0150081 -8.8876e-005 -2.86773e-006 -3.7509e-008 -1.67572e-006 -2.01532e-006 0 6.36111e-015 -0 0.0190083 -0.00119462 -5.71209e-005 3.69856e-008 1.67594e-006 2.01527e-006 0 6.36111e-015 -0 0.0123367 -0.00327119 -0.000677663 -3.79169e-008 -1.6761e-006 -2.01545e-006 0 6.36111e-015 -0 6.36111e-015 6.36111e-015 -3.18055e-015 9.54166e-015 3.18055e-015 3.18055e-015 -10.8083 -39.4414 -10.8819 179.999 85.1881 177.216 -2.93359 21.9584 -1.28738 1.08474e-008 1.75328e-007 5.05508e-007 11.5489 1.5838 0.0993526 -1.54533e-006 2.50107 2.50902 12.1976 45.3136 -7.44193 -1.10979e-006 3.40991e-006 2.99263e-007 
